<svg width="35" className="mr-1"  height="35" viewBox="0 0 890 896" fill="none" xmlns="http://www.w3.org/2000/svg">
                                    <g filter="url(#filter0_i_44_2)">
                                        <path d="M199.25 784C150.649 784 111.25 744.601 111.25 696V200C111.25 151.399 150.649 112 199.25 112H690.75C739.351 112 778.75 151.399 778.75 200V696C778.75 744.601 739.351 784 690.75 784H199.25Z" fill="#FFC900" />
                                    </g>
                                    <path d="M547.684 615.011C560.515 635.992 574.458 656.096 603.995 656.096C628.804 656.096 641.82 643.683 641.82 626.509C641.82 605.957 628.359 598.659 601.065 586.693L586.102 580.272C542.919 561.829 514.197 538.72 514.197 489.907C514.197 444.92 548.407 410.685 601.862 410.685C639.929 410.685 667.277 423.957 687.006 458.715L640.392 488.712C630.138 470.269 619.051 463.008 601.862 463.008C584.322 463.008 573.216 474.152 573.216 488.712C573.216 506.707 584.341 513.987 610.021 525.131L624.984 531.552C675.881 553.373 704.583 575.661 704.583 625.763C704.583 679.747 662.234 709.333 605.385 709.333C549.779 709.333 518.202 681.24 500.625 646.464L547.684 615.011ZM332.86 616.541C342.242 633.453 356.501 646.464 377.008 646.464C396.625 646.464 407.917 638.661 407.917 608.328V410.667H469.716V617.885C469.716 680.736 433.504 709.333 380.623 709.333C332.841 709.333 298.354 676.741 284.299 646.464L332.86 616.541Z" fill="#000001" />
                                </svg>