 <svg width="25" height="25" className="mr-2" viewBox="0 0 668 672" fill="none" xmlns="http://www.w3.org/2000/svg">
                                    <g filter="url(#filter0_i_47_19)">
                                        <path d="M88 672C39.399 672 0 632.601 0 584V88C0 39.3989 39.3989 0 88 0H579.5C628.101 0 667.5 39.3989 667.5 88V584C667.5 632.601 628.101 672 579.5 672H88Z" fill="#444242" />
                                    </g>
                                    <path d="M225.81 261.561H322.378V269.237H234.662V327.004H317.148V334.679H234.662V398.102H323.384V405.777H225.81V261.561ZM331.029 261.561H341.29L386.757 324.984L433.23 261.561L496.441 181L392.591 331.649L446.106 405.777H435.443L386.757 338.315L337.869 405.777H327.408L381.325 331.649L331.029 261.561ZM449.928 269.237V261.561H559.976V269.237H509.277V405.777H500.425V269.237H449.928ZM105 261.561H116.065L268.646 489.884L205.592 405.777L114.254 272.468L113.852 405.777H105V261.561ZM559.084 395.785C557.275 395.785 555.919 394.384 555.919 392.573C555.919 390.762 557.275 389.361 559.084 389.361C560.914 389.361 562.249 390.762 562.249 392.573C562.249 394.384 560.914 395.785 559.084 395.785ZM567.782 387.335H572.519C572.583 389.9 574.456 391.625 577.212 391.625C580.291 391.625 582.035 389.771 582.035 386.3V364.31H586.858V386.321C586.858 392.573 583.241 396.174 577.255 396.174C571.636 396.174 567.782 392.681 567.782 387.335ZM593.166 387.054H597.946C598.355 390.008 601.24 391.883 605.395 391.883C609.271 391.883 612.113 389.878 612.113 387.119C612.113 384.748 610.304 383.325 606.192 382.355L602.187 381.385C596.568 380.069 594.006 377.353 594.006 372.783C594.006 367.242 598.527 363.556 605.309 363.556C611.617 363.556 616.225 367.242 616.505 372.481H611.811C611.359 369.614 608.862 367.824 605.245 367.824C601.434 367.824 598.893 369.657 598.893 372.459C598.893 374.68 600.529 375.952 604.577 376.9L608 377.741C614.373 379.229 617 381.816 617 386.494C617 392.444 612.393 396.174 605.029 396.174C598.14 396.174 593.511 392.616 593.166 387.054Z" fill="white" />
                                    <defs>
                                        <filter id="filter0_i_47_19" x="0" y="0" width="667.5" height="676" filterUnits="userSpaceOnUse" colorInterpolationFilters="sRGB">
                                            <feFlood floodOpacity="0" result="BackgroundImageFix" />
                                            <feBlend mode="normal" in="SourceGraphic" in2="BackgroundImageFix" result="shape" />
                                            <feColorMatrix in="SourceAlpha" type="matrix" values="0 0 0 0 0 0 0 0 0 0 0 0 0 0 0 0 0 0 127 0" result="hardAlpha" />
                                            <feOffset dy="4" />
                                            <feGaussianBlur stdDeviation="95" />
                                            <feComposite in2="hardAlpha" operator="arithmetic" k2="-1" k3="1" />
                                            <feColorMatrix type="matrix" values="0 0 0 0 0 0 0 0 0 0 0 0 0 0 0 0 0 0 0.25 0" />
                                            <feBlend mode="normal" in2="shape" result="effect1_innerShadow_47_19" />
                                        </filter>
                                    </defs>
                                </svg>