<svg width="35" height="35" className="mr-1" viewBox="0 0 334 203" fill="none" xmlns="http://www.w3.org/2000/svg">
                                    <rect y="18.2393" width="334" height="184.46" rx="10" fill="black" />
                                    <path d="M103.667 80.6667C102.422 83.6889 101 87.5111 99.4 92.1333C97.8 96.7556 96.0222 101.733 94.0667 107.067C92.1111 112.222 90.0667 117.644 87.9333 123.333C85.9778 128.844 83.9333 134.267 81.8 139.6H107.933C107.578 134.267 107.133 128.844 106.6 123.333C106.067 117.644 105.622 112.222 105.267 107.067C104.911 101.733 104.556 96.7556 104.2 92.1333C103.844 87.5111 103.667 83.6889 103.667 80.6667ZM92.2 56.9333H122.867L138.867 178H111.933L109.533 156.933H75.6667L67.1333 178H41.5333L92.2 56.9333ZM194.521 75.3333C193.277 75.3333 192.032 75.3333 190.788 75.3333C189.544 75.3333 188.21 75.4222 186.788 75.6L180.388 119.6H187.588C196.121 119.6 202.077 115.689 205.455 107.867C206.699 105.022 207.677 101.467 208.388 97.2C210.344 82.6222 205.721 75.3333 194.521 75.3333ZM164.655 56.9333L196.388 56.1333C212.032 56.1333 222.699 59.6 228.388 66.5333C234.255 73.4667 236.121 83.6889 233.988 97.2C232.032 111.6 226.521 122.356 217.455 129.467C209.81 135.333 199.499 138.267 186.521 138.267C185.099 138.267 183.677 138.267 182.255 138.267C180.832 138.267 179.41 138.178 177.988 138L172.388 178H147.588L164.655 56.9333ZM270.454 178H244.854L261.92 56.9333H287.52L270.454 178Z" fill="white" />
                                </svg>