<svg width="25" height="25" viewBox="0 0 642 577" fill="none" xmlns="http://www.w3.org/2000/svg">
<path d="M321 428C141.475 428 0.916626 366.4 0.916626 288C0.916626 209.6 141.475 148 321 148C500.525 148 641.083 209.6 641.083 288C641.083 366.4 500.525 428 321 428ZM321 176C145.65 176 28.75 233.4 28.75 288C28.75 342.6 145.65 400 321 400C496.35 400 613.25 342.6 613.25 288C613.25 233.4 496.35 176 321 176Z" fill="#2CCBDF"/>
<path d="M197.142 576.4C183.225 576.4 172.092 573.6 160.958 566.6C92.7667 527.4 110.858 374.8 199.925 218C241.675 145.2 293.167 83.5999 343.267 44.3999C397.542 2.39995 446.25 -10.2 479.65 9.39995C514.442 28.9999 526.967 77.9999 518.617 146.6C510.267 211 482.433 286.6 440.683 359.4C398.933 432.2 347.442 493.8 297.342 533C261.158 561 226.367 576.4 197.142 576.4ZM444.858 27.6C422.592 27.6 393.367 40.2 361.358 65.4C314.042 103.2 265.333 162 224.975 232C137.3 384.6 128.95 516.2 174.875 542.8C198.533 556.8 237.5 544.2 280.642 510.6C327.958 472.8 376.667 414 417.025 344C457.383 274 483.825 202.6 492.175 142.4C499.133 86.4 490.783 47.2 467.125 33.2C460.167 30.4 453.208 27.6 444.858 27.6Z" fill="#2CCBDF"/>
<path d="M446.25 576.4C376.667 576.4 276.467 491 201.317 358C110.858 201.2 92.7667 48.6 160.958 9.40001C229.15 -29.8 351.617 61.2 442.075 218C483.825 290.8 511.658 366.4 520.008 430.8C529.75 499.4 515.833 547 481.042 568C469.908 573.6 458.775 576.4 446.25 576.4ZM174.875 33.2C128.95 59.8 137.3 191.4 224.975 344C312.65 496.6 421.2 569.4 467.125 542.8C490.783 528.8 499.133 489.6 492.175 433.6C483.825 373.4 457.383 302 417.025 232C329.35 79.4 220.8 6.60001 174.875 33.2Z" fill="#2CCBDF"/>
<path d="M321 344C351.744 344 376.667 318.928 376.667 288C376.667 257.072 351.744 232 321 232C290.256 232 265.333 257.072 265.333 288C265.333 318.928 290.256 344 321 344Z" fill="#2CCBDF"/>
</svg>
