 <svg width="25" height="25" className="mr-1" viewBox="0 0 480 480" fill="none" xmlns="http://www.w3.org/2000/svg">
                                    <path fillRule="evenodd" clipRule="evenodd" d="M240.42 40.3201C350.65 40.3201 440 129.67 440 239.9C440 350.12 350.65 439.48 240.42 439.48C130.2 439.48 40.8398 350.13 40.8398 239.9C40.8498 129.67 130.2 40.3201 240.42 40.3201Z" fill="#F06292" />
                                    <path fillRule="evenodd" clipRule="evenodd" d="M365.61 125.74C356.57 90.29 297.8 78.64 242.18 98.4C209.08 110.16 173.24 128.62 147.47 152.72C116.83 181.38 111.95 206.32 113.96 216.74C121.06 253.51 171.45 277.55 192.16 295.39V295.5C186.05 298.51 141.35 321.13 130.89 344.26C119.85 368.66 132.65 386.17 141.12 388.53C167.37 395.83 194.3 382.7 208.78 361.11C222.75 340.27 221.59 313.37 215.52 299.98C223.89 297.77 233.66 296.78 246.06 298.23C281.07 302.32 287.94 324.18 286.62 333.33C285.31 342.48 277.96 347.51 275.51 349.03C273.05 350.55 272.31 351.08 272.51 352.2C272.81 353.84 273.94 353.78 276.04 353.43C278.92 352.94 294.42 345.99 295.09 329.1C295.93 307.66 275.39 283.68 239.01 284.3C224.03 284.56 214.61 285.98 207.8 288.52C207.3 287.95 206.78 287.38 206.26 286.81C183.77 262.81 142.19 245.84 143.95 213.58C144.59 201.85 148.67 170.97 223.84 133.51C285.42 102.82 334.72 111.27 343.24 129.98C355.41 156.72 316.89 206.41 252.94 213.58C228.57 216.31 215.74 206.87 212.55 203.35C209.19 199.65 208.69 199.48 207.44 200.18C205.4 201.31 206.69 204.58 207.44 206.53C209.35 211.5 217.19 220.31 230.54 224.7C242.29 228.56 270.9 230.67 305.5 217.29C344.24 202.29 374.5 160.59 365.61 125.74ZM200.76 306.38C203.66 317.12 203.34 327.14 200.35 336.21C200.02 337.22 199.65 338.21 199.25 339.2C198.85 340.18 198.42 341.16 197.96 342.12C195.65 346.92 192.54 351.41 188.74 355.56C177.14 368.21 160.94 372.99 154 368.96C146.5 364.61 150.26 346.78 163.7 332.56C178.16 317.27 198.97 307.44 198.97 307.44L198.94 307.38C199.54 307.05 200.15 306.72 200.76 306.38Z" fill="white" />
                                </svg>