<svg width="300" height="160" viewBox="0 0 1036 332" fill="none" xmlns="http://www.w3.org/2000/svg">
<path d="M38 22L517.384 22C544.998 22 567.384 44.3858 567.384 72V263C567.384 300.003 597.381 330 634.384 330H1036" stroke="#00ACC1" stroke-width="4"/>
<path d="M45.9158 22C45.9158 34.1503 35.8422 44 23.4158 44C10.9894 44 0.915771 34.1503 0.915771 22C0.915771 9.84974 10.9894 0 23.4158 0C35.8422 0 45.9158 9.84974 45.9158 22ZM9.00002 22C9.00002 29.7847 15.4542 36.0954 23.4158 36.0954C31.3774 36.0954 37.8315 29.7847 37.8315 22C37.8315 14.2153 31.3774 7.9046 23.4158 7.9046C15.4542 7.9046 9.00002 14.2153 9.00002 22Z" fill="#00ACC1"/>
</svg>
