<svg width="25" height="25" viewBox="0 0 360 360" fill="none" xmlns="http://www.w3.org/2000/svg">
<path d="M338 0H22C9.84974 0 0 9.84973 0 22V338C0 350.15 9.84973 360 22 360H338C350.15 360 360 350.15 360 338V22C360 9.84974 350.15 0 338 0Z" fill="#1976D2"/>
<path d="M331.94 200.84C331.94 200.84 314.07 188.92 293.87 188.92C273.67 188.92 266.4 198.52 266.4 208.78C266.4 235.26 340.21 232.61 340.21 285.9C340.21 367.99 227.67 331.58 227.67 331.58V292.2C227.67 292.2 249.19 308.42 275 308.42C300.81 308.42 299.83 291.54 299.83 289.22C299.83 264.73 226.68 264.73 226.68 210.44C226.68 136.63 333.26 165.75 333.26 165.75L331.94 200.84Z" fill="white"/>
<path d="M214.9 161C214.9 160.448 214.452 160 213.9 160H83.27C82.7177 160 82.27 160.448 82.27 161V191.64C82.27 192.192 82.7177 192.64 83.27 192.64H128.84C129.392 192.64 129.84 193.088 129.84 193.64V339C129.84 339.552 130.288 340 130.84 340H166.53C167.082 340 167.53 339.552 167.53 339V193.64C167.53 193.088 167.978 192.64 168.53 192.64H213.9C214.452 192.64 214.9 192.192 214.9 191.64V161Z" fill="white"/>
</svg>
