<svg width="25" height="25" className="mr-1" viewBox="0 0 480 480" fill="none" xmlns="http://www.w3.org/2000/svg">
                                    <path d="M422 221L259 58C254 53 247 50 240 50C233 50 226 53 221 58L186 93L227 134C231 132 235 131 240 131C257 131 270 144 270 161C270 166 269 170 267 174L307 214C311 212 315 211 320 211C337 211 350 224 350 241C350 258 337 271 320 271C303 271 290 258 290 241C290 236 291 232 293 228L253 188C252 188 251 189 250 189V293C262 297 270 308 270 321C270 338 257 351 240 351C223 351 210 338 210 321C210 308 218 297 230 293V188C218 184 210 173 210 160C210 155 211 151 213 147L172 106L58 221C53 226 50 233 50 240C50 247 53 254 58 259L221 422C226 427 233 430 240 430C247 430 254 427 259 422L422 259C427 254 430 247 430 240C430 233 427 226 422 221Z" fill="#F4511E" />
                                </svg>