<svg width="300" height="220" viewBox="0 0 1402 551" fill="none" xmlns="http://www.w3.org/2000/svg">
<path d="M0 549H776.368C803.983 549 826.368 526.614 826.368 499V98C826.368 60.9969 856.365 31 893.368 31H1349.5" stroke="#FFC900" stroke-width="4"/>
<path d="M1402 31C1402 48.1208 1388.12 62 1371 62C1353.88 62 1340 48.1208 1340 31C1340 13.8792 1353.88 0 1371 0C1388.12 0 1402 13.8792 1402 31ZM1351.14 31C1351.14 41.9693 1360.03 50.8617 1371 50.8617C1381.97 50.8617 1390.86 41.9693 1390.86 31C1390.86 20.0307 1381.97 11.1383 1371 11.1383C1360.03 11.1383 1351.14 20.0307 1351.14 31Z" fill="#FFC900"/>
</svg>
