<svg width="300" height="500" viewBox="0 0 1036 209" fill="none" xmlns="http://www.w3.org/2000/svg">
<path d="M0 2L479.384 2C506.998 2 529.384 24.3858 529.384 52V120C529.384 157.003 559.381 187 596.384 187H998" stroke="black" stroke-width="4"/>
<path d="M1036 187C1036 199.15 1025.93 209 1013.5 209C1001.07 209 991 199.15 991 187C991 174.85 1001.07 165 1013.5 165C1025.93 165 1036 174.85 1036 187ZM999.084 187C999.084 194.785 1005.54 201.095 1013.5 201.095C1021.46 201.095 1027.92 194.785 1027.92 187C1027.92 179.215 1021.46 172.905 1013.5 172.905C1005.54 172.905 999.084 179.215 999.084 187Z" fill="black"/>
</svg>
