<svg width="300" height="520" viewBox="0 0 902 207" fill="none" xmlns="http://www.w3.org/2000/svg">
<path d="M32 189L420.61 189C448.224 189 470.61 166.614 470.61 139V69C470.61 31.9969 500.607 2 537.61 2L902 2" stroke="#F06292" stroke-opacity="0.83" stroke-width="4"/>
<path d="M38 188.5C38 198.717 29.4934 207 19 207C8.50659 207 0 198.717 0 188.5C0 178.283 8.50659 170 19 170C29.4934 170 38 178.283 38 188.5ZM6.8267 188.5C6.8267 195.046 12.2769 200.353 19 200.353C25.7231 200.353 31.1733 195.046 31.1733 188.5C31.1733 181.954 25.7231 176.647 19 176.647C12.2769 176.647 6.8267 181.954 6.8267 188.5Z" fill="#F27CA4"/>
</svg>
